<svg width="432.928711" height="114.584961" viewBox="0 0 432.929 114.585" fill="none" xmlns="http://www.w3.org/2000/svg"
	xmlns:xlink="http://www.w3.org/1999/xlink">
	<desc>
		Created with Pixso.
	</desc>
	<defs />
	<rect id="Replace Here" rx="0.000000" width="111.211662" height="111.211662" transform="translate(0.599446 1.472004)"
		fill="#FFFFFF" fill-opacity="0" />
	<path id="Vector"
		d="M96.38 31.62C105.12 31.62 112.2 24.54 112.2 15.81C112.2 7.07 105.12 0 96.38 0C87.64 0 80.56 7.07 80.56 15.81C80.56 24.54 87.64 31.62 96.38 31.62Z"
		fill="#FF2D33" fill-opacity="1.000000" fill-rule="evenodd" />
	<path id="Vector"
		d="M96.38 73.1C105.12 73.1 112.2 66.02 112.2 57.29C112.2 48.56 105.12 41.48 96.38 41.48C87.64 41.48 80.56 48.56 80.56 57.29C80.56 66.02 87.64 73.1 96.38 73.1Z"
		fill="#D53D5C" fill-opacity="1.000000" fill-rule="evenodd" />
	<path id="Vector"
		d="M96.38 114.58C105.12 114.58 112.2 107.5 112.2 98.77C112.2 90.04 105.12 82.96 96.38 82.96C87.64 82.96 80.56 90.04 80.56 98.77C80.56 107.5 87.64 114.58 96.38 114.58Z"
		fill="#815EAD" fill-opacity="1.000000" fill-rule="evenodd" />
	<path id="Vector"
		d="M56.1 73.1C64.83 73.1 71.92 66.02 71.92 57.29C71.92 48.56 64.83 41.48 56.1 41.48C47.36 41.48 40.28 48.56 40.28 57.29C40.28 66.02 47.36 73.1 56.1 73.1Z"
		fill="#AB4D85" fill-opacity="1.000000" fill-rule="evenodd" />
	<path id="Vector"
		d="M56.1 114.58C64.83 114.58 71.92 107.5 71.92 98.77C71.92 90.04 64.83 82.96 56.1 82.96C47.36 82.96 40.28 90.04 40.28 98.77C40.28 107.5 47.36 114.58 56.1 114.58Z"
		fill="#576ED6" fill-opacity="1.000000" fill-rule="evenodd" />
	<path id="Vector"
		d="M15.81 114.58C24.55 114.58 31.63 107.5 31.63 98.77C31.63 90.04 24.55 82.96 15.81 82.96C7.08 82.96 0 90.04 0 98.77C0 107.5 7.08 114.58 15.81 114.58Z"
		fill="#2D7EFF" fill-opacity="1.000000" fill-rule="evenodd" />
	<path id="Divider" d="M163.56 1.07L163.56 113.07" stroke="#D6DCE5" stroke-opacity="1.000000" stroke-width="1.284040"
		stroke-linecap="round" />
	<path id="BRIX"
		d="M380.24 39.99C388.95 39.99 395.38 46.51 395.38 57.27C395.38 68.01 388.95 74.54 380.24 74.54C371.51 74.54 365.09 68 365.09 57.27C365.09 46.51 371.51 39.99 380.24 39.99ZM429.63 51.07L424.43 51.07C423.17 47.09 420.15 44.63 415.68 44.63C409.98 44.63 405.64 49.11 405.64 57.25C405.64 65.42 409.95 69.91 415.87 69.91C421.27 69.91 424.85 66.48 424.96 61.06L416.65 61.06L416.65 56.87L429.87 56.87L429.87 60.7C429.87 69.19 424.03 74.54 415.87 74.54C406.77 74.54 400.59 67.92 400.59 57.28C400.59 46.55 406.95 39.99 415.65 39.99C422.91 39.99 428.5 44.53 429.63 51.07ZM230.32 74.07L225.21 74.07L215.87 40.45L221.21 40.45L227.76 66.49L228.07 66.49L234.89 40.45L240.17 40.45L246.99 66.5L247.29 66.5L253.83 40.45L259.17 40.45L249.84 74.07L244.73 74.07L237.66 48.89L237.39 48.89L230.32 74.07ZM284.14 74.07L263.82 74.07L263.82 40.45L268.9 40.45L268.9 69.71L284.14 69.71L284.14 74.07ZM324.05 74.07L311.16 74.07L311.16 40.45L323.48 40.45C330.63 40.45 334.08 44.31 334.08 49.29C334.08 53.49 331.5 55.59 328.42 56.38L328.42 56.7C331.75 56.88 335.39 59.82 335.39 65.03C335.39 70.18 331.86 74.07 324.05 74.07ZM361.71 74.07L341.4 74.07L341.4 40.45L346.48 40.45L346.48 69.71L361.71 69.71L361.71 74.07ZM380.24 69.91C386.02 69.91 390.36 65.45 390.36 57.27C390.36 49.08 386.02 44.63 380.24 44.63C374.44 44.63 370.13 49.08 370.13 57.27C370.13 65.45 374.44 69.91 380.24 69.91ZM316.24 44.78L316.24 55L323.04 55C326.44 55 329.11 52.93 329.11 49.68C329.11 46.89 327.19 44.78 323.17 44.78L316.24 44.78ZM316.24 58.95L316.24 69.73L323.56 69.73C328.43 69.73 330.36 67.61 330.36 64.78C330.36 61.58 327.81 58.95 323.74 58.95L316.24 58.95ZM286.17 74.07L307.52 74.07L307.52 78.24L286.17 78.24L286.17 74.07Z"
		fill="#0D0A2C" fill-opacity="1.000000" fill-rule="evenodd" />
</svg>