<svg width="246.113281" height="78.000000" viewBox="0 0 246.113 78" fill="none" xmlns="http://www.w3.org/2000/svg"
	xmlns:xlink="http://www.w3.org/1999/xlink">
	<desc>
		Created with Pixso.
	</desc>
	<defs />
	<rect id="Replace Here" rx="0.000000" width="63.548069" height="63.548069" transform="translate(0.340582 7.226324)"
		fill="#FFFFFF" fill-opacity="0" />
	<path id="Vector"
		d="M55.07 24.45C60.06 24.45 64.11 20.4 64.11 15.41C64.11 10.43 60.06 6.38 55.07 6.38C50.08 6.38 46.03 10.43 46.03 15.41C46.03 20.4 50.08 24.45 55.07 24.45Z"
		fill="#FF2D33" fill-opacity="1.000000" fill-rule="evenodd" />
	<path id="Vector"
		d="M55.07 48.15C60.06 48.15 64.11 44.11 64.11 39.12C64.11 34.13 60.06 30.08 55.07 30.08C50.08 30.08 46.03 34.13 46.03 39.12C46.03 44.11 50.08 48.15 55.07 48.15Z"
		fill="#D53D5C" fill-opacity="1.000000" fill-rule="evenodd" />
	<path id="Vector"
		d="M55.07 71.86C60.06 71.86 64.11 67.81 64.11 62.82C64.11 57.83 60.06 53.79 55.07 53.79C50.08 53.79 46.03 57.83 46.03 62.82C46.03 67.81 50.08 71.86 55.07 71.86Z"
		fill="#815EAD" fill-opacity="1.000000" fill-rule="evenodd" />
	<path id="Vector"
		d="M32.05 48.15C37.04 48.15 41.09 44.11 41.09 39.12C41.09 34.13 37.04 30.08 32.05 30.08C27.06 30.08 23.01 34.13 23.01 39.12C23.01 44.11 27.06 48.15 32.05 48.15Z"
		fill="#AB4D85" fill-opacity="1.000000" fill-rule="evenodd" />
	<path id="Vector"
		d="M32.05 71.86C37.04 71.86 41.09 67.81 41.09 62.82C41.09 57.83 37.04 53.79 32.05 53.79C27.06 53.79 23.01 57.83 23.01 62.82C23.01 67.81 27.06 71.86 32.05 71.86Z"
		fill="#576ED6" fill-opacity="1.000000" fill-rule="evenodd" />
	<path id="Vector"
		d="M9.03 71.86C14.03 71.86 18.07 67.81 18.07 62.82C18.07 57.83 14.03 53.79 9.03 53.79C4.04 53.79 0 57.83 0 62.82C0 67.81 4.04 71.86 9.03 71.86Z"
		fill="#2D7EFF" fill-opacity="1.000000" fill-rule="evenodd" />
	<path id="Divider" d="M96.11 0.5L96.11 77.5" stroke="#D6DCE5" stroke-opacity="1.000000" stroke-width="1.000000"
		stroke-linecap="round" />
	<path id="Divider"
		d="M140.1 35.5L136.12 35.5L128.85 9.31L133 9.31L138.1 29.59L138.35 29.59L143.66 9.31L147.77 9.31L153.08 29.6L153.32 29.6L158.4 9.31L162.57 9.31L155.3 35.5L151.32 35.5L145.82 15.89L145.61 15.89L140.1 35.5ZM244.29 35.5L228.47 35.5L228.47 9.31L232.43 9.31L232.43 32.09L244.29 32.09L244.29 35.5ZM175.47 32.81C174.75 34.28 172.92 35.93 169.67 35.93C165.94 35.93 163.04 33.81 163.04 29.95C163.04 25.48 166.84 24.52 170.56 24.08C174.09 23.67 175.53 23.69 175.53 22.3L175.53 22.21C175.53 19.99 174.26 18.7 171.79 18.7C169.23 18.7 167.79 20.04 167.23 21.43L163.64 20.62C164.91 17.04 168.19 15.61 171.74 15.61C174.86 15.61 179.36 16.74 179.36 22.45L179.36 35.5L175.62 35.5L175.62 32.81L175.47 32.81ZM192.85 18.91C190.18 18.91 188.27 20.7 188.27 23.83L188.27 35.5L184.45 35.5L184.45 15.86L188.12 15.86L188.12 19.05L188.36 19.05C189.27 16.97 191.2 15.61 194.15 15.61C198.16 15.61 200.84 18.15 200.84 23.01L200.84 35.5L197.01 35.5L197.01 23.46C197.01 20.62 195.44 18.91 192.85 18.91ZM223.04 35.93C223.04 40.98 219.18 43.26 214.18 43.26C209.49 43.26 206.87 41.23 205.83 38.82L209.12 37.46C209.8 38.59 211.04 40.19 214.22 40.19C217.13 40.19 219.24 38.86 219.24 35.78L219.24 31.92L218.99 31.92C218.3 33.17 216.91 35.21 213.3 35.21C208.66 35.21 205.1 31.87 205.1 25.6C205.1 19.35 208.58 15.61 213.33 15.61C216.99 15.61 218.34 17.83 219.02 19.04L219.3 19.04L219.3 15.86L223.04 15.86L223.04 35.93ZM208.95 25.55C208.95 29.41 210.73 32.03 214.15 32.03C217.44 32.03 219.27 29.6 219.27 25.55C219.27 21.57 217.48 18.85 214.15 18.85C210.69 18.85 208.95 21.78 208.95 25.55ZM166.78 30C166.78 31.89 168.34 32.86 170.5 32.86C173.68 32.86 175.54 30.74 175.54 28.41L175.54 25.88C174.99 26.43 172.05 26.77 170.81 26.93C168.59 27.22 166.78 27.95 166.78 30Z"
		fill="#19213D" fill-opacity="1.000000" fill-rule="evenodd" />
	<path id="Divider"
		d="M165.68 53.8C170.14 53.8 173.38 57.25 173.38 62.77C173.38 68.29 170.14 71.74 165.68 71.74C161.21 71.74 157.97 68.29 157.97 62.77C157.97 57.25 161.21 53.8 165.68 53.8ZM191.04 59.5L188.86 59.5C188.12 57.2 186.4 55.78 183.88 55.78C180.78 55.78 178.29 58.24 178.29 62.77C178.29 67.3 180.78 69.75 184.02 69.75C186.98 69.75 189.04 67.78 189.1 64.65L184.49 64.65L184.49 62.77L191.14 62.77L191.14 64.65C191.14 68.96 188.18 71.74 184.02 71.74C179.38 71.74 176.24 68.29 176.24 62.77C176.24 57.25 179.41 53.8 183.88 53.8C187.56 53.8 190.39 56.12 191.04 59.5ZM136.53 71.5L130.22 71.5L130.22 54.04L136.32 54.04C139.97 54.04 141.68 56.12 141.68 58.67C141.68 60.92 140.35 61.91 138.85 62.33L138.85 62.5C140.45 62.59 142.36 64.09 142.36 66.86C142.36 69.49 140.65 71.5 136.53 71.5ZM156.06 71.5L145.84 71.5L145.84 54.04L147.95 54.04L147.95 69.62L156.06 69.62L156.06 71.5ZM165.68 69.75C168.85 69.75 171.34 67.3 171.34 62.77C171.34 58.24 168.85 55.78 165.68 55.78C162.5 55.78 160.02 58.24 160.02 62.77C160.02 67.3 162.5 69.75 165.68 69.75ZM132.33 55.91L132.33 61.71L136.26 61.71C138.16 61.71 139.66 60.52 139.66 58.67C139.66 57.15 138.64 55.91 136.32 55.91L132.33 55.91ZM132.33 63.55L132.33 69.62L136.53 69.62C139.29 69.62 140.35 68.4 140.35 66.86C140.35 65.08 138.91 63.55 136.63 63.55L132.33 63.55Z"
		fill="#5D6481" fill-opacity="1.000000" fill-rule="evenodd" />
</svg>