<svg width="112.205078" height="114.584961" viewBox="0 0 112.205 114.585" fill="none" xmlns="http://www.w3.org/2000/svg" xmlns:xlink="http://www.w3.org/1999/xlink">
	<desc>
			Created with Pixso.
	</desc>
	<defs/>
	<rect id="Replace Here" rx="0.000000" width="111.211662" height="111.211662" transform="translate(0.599446 1.472004)" fill="#FFFFFF" fill-opacity="0"/>
	<path id="Vector" d="M96.38 31.62C105.12 31.62 112.2 24.54 112.2 15.81C112.2 7.07 105.12 0 96.38 0C87.64 0 80.56 7.07 80.56 15.81C80.56 24.54 87.64 31.62 96.38 31.62Z" fill="#FF2D33" fill-opacity="1.000000" fill-rule="evenodd"/>
	<path id="Vector" d="M96.38 73.1C105.12 73.1 112.2 66.02 112.2 57.29C112.2 48.56 105.12 41.48 96.38 41.48C87.64 41.48 80.56 48.56 80.56 57.29C80.56 66.02 87.64 73.1 96.38 73.1Z" fill="#D53D5C" fill-opacity="1.000000" fill-rule="evenodd"/>
	<path id="Vector" d="M96.38 114.58C105.12 114.58 112.2 107.5 112.2 98.77C112.2 90.04 105.12 82.96 96.38 82.96C87.64 82.96 80.56 90.04 80.56 98.77C80.56 107.5 87.64 114.58 96.38 114.58Z" fill="#815EAD" fill-opacity="1.000000" fill-rule="evenodd"/>
	<path id="Vector" d="M56.1 73.1C64.83 73.1 71.92 66.02 71.92 57.29C71.92 48.56 64.83 41.48 56.1 41.48C47.36 41.48 40.28 48.56 40.28 57.29C40.28 66.02 47.36 73.1 56.1 73.1Z" fill="#AB4D85" fill-opacity="1.000000" fill-rule="evenodd"/>
	<path id="Vector" d="M56.1 114.58C64.83 114.58 71.92 107.5 71.92 98.77C71.92 90.04 64.83 82.96 56.1 82.96C47.36 82.96 40.28 90.04 40.28 98.77C40.28 107.5 47.36 114.58 56.1 114.58Z" fill="#576ED6" fill-opacity="1.000000" fill-rule="evenodd"/>
	<path id="Vector" d="M15.81 114.58C24.55 114.58 31.63 107.5 31.63 98.77C31.63 90.04 24.55 82.96 15.81 82.96C7.08 82.96 0 90.04 0 98.77C0 107.5 7.08 114.58 15.81 114.58Z" fill="#2D7EFF" fill-opacity="1.000000" fill-rule="evenodd"/>
</svg>
